<svg id="export-svg" width="100%" xmlns="http://www.w3.org/2000/svg" viewBox="0 0 1879 1228" style="max-width: 1879px; background: rgb(255, 255, 255);" role="graphics-document document" aria-roledescription="gantt"><style xmlns="http://www.w3.org/1999/xhtml">p {margin: 0;}</style><style>#export-svg{font-family:arial,sans-serif;font-size:14px;fill:#000000;}@keyframes edge-animation-frame{from{stroke-dashoffset:0;}}@keyframes dash{to{stroke-dashoffset:0;}}#export-svg .edge-animation-slow{stroke-dasharray:9,5!important;stroke-dashoffset:900;animation:dash 50s linear infinite;stroke-linecap:round;}#export-svg .edge-animation-fast{stroke-dasharray:9,5!important;stroke-dashoffset:900;animation:dash 20s linear infinite;stroke-linecap:round;}#export-svg .error-icon{fill:#552222;}#export-svg .error-text{fill:#552222;stroke:#552222;}#export-svg .edge-thickness-normal{stroke-width:1px;}#export-svg .edge-thickness-thick{stroke-width:3.5px;}#export-svg .edge-pattern-solid{stroke-dasharray:0;}#export-svg .edge-thickness-invisible{stroke-width:0;fill:none;}#export-svg .edge-pattern-dashed{stroke-dasharray:3;}#export-svg .edge-pattern-dotted{stroke-dasharray:2;}#export-svg .marker{fill:#000000;stroke:#000000;}#export-svg .marker.cross{stroke:#000000;}#export-svg svg{font-family:arial,sans-serif;font-size:14px;}#export-svg p{margin:0;}#export-svg .mermaid-main-font{font-family:arial,sans-serif;}#export-svg .exclude-range{fill:#eeeeee;}#export-svg .section{stroke:none;opacity:0.2;}#export-svg .section0{fill:#6eaa49;}#export-svg .section2{fill:#6eaa49;}#export-svg .section1,#export-svg .section3{fill:white;opacity:0.2;}#export-svg .sectionTitle0{fill:#333;}#export-svg .sectionTitle1{fill:#333;}#export-svg .sectionTitle2{fill:#333;}#export-svg .sectionTitle3{fill:#333;}#export-svg .sectionTitle{text-anchor:start;font-family:arial,sans-serif;}#export-svg .grid .tick{stroke:lightgrey;opacity:0.8;shape-rendering:crispEdges;}#export-svg .grid .tick text{font-family:arial,sans-serif;fill:#000000;}#export-svg .grid path{stroke-width:0;}#export-svg .today{fill:none;stroke:red;stroke-width:2px;}#export-svg .task{stroke-width:2;}#export-svg .taskText{text-anchor:middle;font-family:arial,sans-serif;}#export-svg .taskTextOutsideRight{fill:black;text-anchor:start;font-family:arial,sans-serif;}#export-svg .taskTextOutsideLeft{fill:black;text-anchor:end;}#export-svg .task.clickable{cursor:pointer;}#export-svg .taskText.clickable{cursor:pointer;fill:#003163!important;font-weight:bold;}#export-svg .taskTextOutsideLeft.clickable{cursor:pointer;fill:#003163!important;font-weight:bold;}#export-svg .taskTextOutsideRight.clickable{cursor:pointer;fill:#003163!important;font-weight:bold;}#export-svg .taskText0,#export-svg .taskText1,#export-svg .taskText2,#export-svg .taskText3{fill:white;}#export-svg .task0,#export-svg .task1,#export-svg .task2,#export-svg .task3{fill:#487e3a;stroke:#13540c;}#export-svg .taskTextOutside0,#export-svg .taskTextOutside2{fill:black;}#export-svg .taskTextOutside1,#export-svg .taskTextOutside3{fill:black;}#export-svg .active0,#export-svg .active1,#export-svg .active2,#export-svg .active3{fill:#cde498;stroke:#13540c;}#export-svg .activeText0,#export-svg .activeText1,#export-svg .activeText2,#export-svg .activeText3{fill:black!important;}#export-svg .done0,#export-svg .done1,#export-svg .done2,#export-svg .done3{stroke:grey;fill:lightgrey;stroke-width:2;}#export-svg .doneText0,#export-svg .doneText1,#export-svg .doneText2,#export-svg .doneText3{fill:black!important;}#export-svg .crit0,#export-svg .crit1,#export-svg .crit2,#export-svg .crit3{stroke:#ff8888;fill:red;stroke-width:2;}#export-svg .activeCrit0,#export-svg .activeCrit1,#export-svg .activeCrit2,#export-svg .activeCrit3{stroke:#ff8888;fill:#cde498;stroke-width:2;}#export-svg .doneCrit0,#export-svg .doneCrit1,#export-svg .doneCrit2,#export-svg .doneCrit3{stroke:#ff8888;fill:lightgrey;stroke-width:2;cursor:pointer;shape-rendering:crispEdges;}#export-svg .milestone{transform:rotate(45deg) scale(0.8,0.8);}#export-svg .milestoneText{font-style:italic;}#export-svg .doneCritText0,#export-svg .doneCritText1,#export-svg .doneCritText2,#export-svg .doneCritText3{fill:black!important;}#export-svg .vert{stroke:#00BFFF;}#export-svg .vertText{font-size:15px;text-anchor:middle;fill:#00BFFF!important;}#export-svg .activeCritText0,#export-svg .activeCritText1,#export-svg .activeCritText2,#export-svg .activeCritText3{fill:black!important;}#export-svg .titleText{text-anchor:middle;font-size:18px;fill:#333;font-family:arial,sans-serif;}#export-svg .node .neo-node{stroke:#13540c;}#export-svg [data-look="neo"].node rect,#export-svg [data-look="neo"].cluster rect,#export-svg [data-look="neo"].node polygon{stroke:url(#export-svg-gradient);filter:drop-shadow( 1px 2px 2px rgba(185,185,185,0.5));}#export-svg [data-look="neo"].node path{stroke:url(#export-svg-gradient);stroke-width:1;}#export-svg [data-look="neo"].node .outer-path{filter:drop-shadow( 1px 2px 2px rgba(185,185,185,0.5));}#export-svg [data-look="neo"].node .neo-line path{stroke:#13540c;filter:none;}#export-svg [data-look="neo"].node circle{stroke:url(#export-svg-gradient);filter:drop-shadow( 1px 2px 2px rgba(185,185,185,0.5));}#export-svg [data-look="neo"].node circle .state-start{fill:#000000;}#export-svg [data-look="neo"].statediagram-cluster rect{fill:#cde498;stroke:url(#export-svg-gradient);stroke-width:1;}#export-svg [data-look="neo"].icon-shape .icon{fill:url(#export-svg-gradient);filter:drop-shadow( 1px 2px 2px rgba(185,185,185,0.5));}#export-svg [data-look="neo"].icon-shape .icon-neo path{stroke:url(#export-svg-gradient);filter:drop-shadow( 1px 2px 2px rgba(185,185,185,0.5));}#export-svg :root{--mermaid-font-family:"trebuchet ms",verdana,arial,sans-serif;}</style><g/><g class="grid" transform="translate(75, 1178)" fill="none" font-size="10" font-family="sans-serif" text-anchor="middle"><path class="domain" stroke="currentColor" d="M0.5,-1143V0.5H1729.5V-1143"/><g class="tick" opacity="1" transform="translate(0.5,0)"><line stroke="currentColor" y2="-1143"/><text fill="#000" y="3" dy="1em" stroke="none" font-size="10" style="text-anchor: middle;">2027-01-01</text></g><g class="tick" opacity="1" transform="translate(210.5,0)"><line stroke="currentColor" y2="-1143"/><text fill="#000" y="3" dy="1em" stroke="none" font-size="10" style="text-anchor: middle;">2027-02-01</text></g><g class="tick" opacity="1" transform="translate(400.5,0)"><line stroke="currentColor" y2="-1143"/><text fill="#000" y="3" dy="1em" stroke="none" font-size="10" style="text-anchor: middle;">2027-03-01</text></g><g class="tick" opacity="1" transform="translate(610.5,0)"><line stroke="currentColor" y2="-1143"/><text fill="#000" y="3" dy="1em" stroke="none" font-size="10" style="text-anchor: middle;">2027-04-01</text></g><g class="tick" opacity="1" transform="translate(813.5,0)"><line stroke="currentColor" y2="-1143"/><text fill="#000" y="3" dy="1em" stroke="none" font-size="10" style="text-anchor: middle;">2027-05-01</text></g><g class="tick" opacity="1" transform="translate(1024.5,0)"><line stroke="currentColor" y2="-1143"/><text fill="#000" y="3" dy="1em" stroke="none" font-size="10" style="text-anchor: middle;">2027-06-01</text></g><g class="tick" opacity="1" transform="translate(1227.5,0)"><line stroke="currentColor" y2="-1143"/><text fill="#000" y="3" dy="1em" stroke="none" font-size="10" style="text-anchor: middle;">2027-07-01</text></g><g class="tick" opacity="1" transform="translate(1437.5,0)"><line stroke="currentColor" y2="-1143"/><text fill="#000" y="3" dy="1em" stroke="none" font-size="10" style="text-anchor: middle;">2027-08-01</text></g><g class="tick" opacity="1" transform="translate(1648.5,0)"><line stroke="currentColor" y2="-1143"/><text fill="#000" y="3" dy="1em" stroke="none" font-size="10" style="text-anchor: middle;">2027-09-01</text></g></g><g><rect x="0" y="48" width="1841.5" height="24" class="section section0"/><rect x="0" y="168" width="1841.5" height="24" class="section section0"/><rect x="0" y="72" width="1841.5" height="24" class="section section0"/><rect x="0" y="96" width="1841.5" height="24" class="section section0"/><rect x="0" y="120" width="1841.5" height="24" class="section section0"/><rect x="0" y="144" width="1841.5" height="24" class="section section0"/><rect x="0" y="192" width="1841.5" height="24" class="section section0"/><rect x="0" y="240" width="1841.5" height="24" class="section section1"/><rect x="0" y="216" width="1841.5" height="24" class="section section0"/><rect x="0" y="264" width="1841.5" height="24" class="section section1"/><rect x="0" y="312" width="1841.5" height="24" class="section section1"/><rect x="0" y="288" width="1841.5" height="24" class="section section1"/><rect x="0" y="336" width="1841.5" height="24" class="section section1"/><rect x="0" y="408" width="1841.5" height="24" class="section section2"/><rect x="0" y="432" width="1841.5" height="24" class="section section2"/><rect x="0" y="384" width="1841.5" height="24" class="section section1"/><rect x="0" y="456" width="1841.5" height="24" class="section section2"/><rect x="0" y="360" width="1841.5" height="24" class="section section1"/><rect x="0" y="480" width="1841.5" height="24" class="section section2"/><rect x="0" y="504" width="1841.5" height="24" class="section section2"/><rect x="0" y="528" width="1841.5" height="24" class="section section2"/><rect x="0" y="552" width="1841.5" height="24" class="section section2"/><rect x="0" y="576" width="1841.5" height="24" class="section section2"/><rect x="0" y="600" width="1841.5" height="24" class="section section3"/><rect x="0" y="624" width="1841.5" height="24" class="section section3"/><rect x="0" y="648" width="1841.5" height="24" class="section section3"/><rect x="0" y="672" width="1841.5" height="24" class="section section3"/><rect x="0" y="696" width="1841.5" height="24" class="section section3"/><rect x="0" y="720" width="1841.5" height="24" class="section section3"/><rect x="0" y="768" width="1841.5" height="24" class="section section0"/><rect x="0" y="936" width="1841.5" height="24" class="section section1"/><rect x="0" y="792" width="1841.5" height="24" class="section section0"/><rect x="0" y="960" width="1841.5" height="24" class="section section1"/><rect x="0" y="984" width="1841.5" height="24" class="section section1"/><rect x="0" y="816" width="1841.5" height="24" class="section section0"/><rect x="0" y="840" width="1841.5" height="24" class="section section0"/><rect x="0" y="1008" width="1841.5" height="24" class="section section1"/><rect x="0" y="864" width="1841.5" height="24" class="section section0"/><rect x="0" y="888" width="1841.5" height="24" class="section section0"/><rect x="0" y="1032" width="1841.5" height="24" class="section section2"/><rect x="0" y="1056" width="1841.5" height="24" class="section section2"/><rect x="0" y="1080" width="1841.5" height="24" class="section section2"/><rect x="0" y="1104" width="1841.5" height="24" class="section section3"/><rect x="0" y="1128" width="1841.5" height="24" class="section section3"/><rect x="0" y="744" width="1841.5" height="24" class="section section3"/><rect x="0" y="912" width="1841.5" height="24" class="section section0"/><rect x="0" y="1152" width="1841.5" height="24" class="section section3"/></g><g><rect id="a1" rx="3" ry="3" x="75" y="50" width="47" height="20" transform-origin="98.5px 60px" class="task task0"/><rect id="a5.1" rx="3" ry="3" x="75" y="170" width="1587" height="20" transform-origin="868.5px 180px" class="task task0"/><rect id="a2" rx="3" ry="3" x="82" y="74" width="47" height="20" transform-origin="105.5px 84px" class="task task0"/><rect id="a3" rx="3" ry="3" x="89" y="98" width="47" height="20" transform-origin="112.5px 108px" class="task task0"/><rect id="a4" rx="3" ry="3" x="95" y="122" width="48" height="20" transform-origin="119px 132px" class="task task0"/><rect id="a5" rx="3" ry="3" x="102" y="146" width="48" height="20" transform-origin="126px 156px" class="task task0"/><rect id="a6" rx="3" ry="3" x="109" y="194" width="47" height="20" transform-origin="132.5px 204px" class="task task0"/><rect id="b1" rx="3" ry="3" x="143" y="242" width="20" height="20" transform-origin="153px 252px" class="task task1"/><rect id="task1" rx="3" ry="3" x="146" y="218" width="20" height="20" transform-origin="156px 228px" class="task milestone  task0"/><rect id="b2" rx="3" ry="3" x="163" y="266" width="14" height="20" transform-origin="170px 276px" class="task task1"/><rect id="b3" rx="3" ry="3" x="163" y="314" width="95" height="20" transform-origin="210.5px 324px" class="task task1"/><rect id="task2" rx="3" ry="3" x="167" y="290" width="20" height="20" transform-origin="177px 300px" class="task milestone  task1"/><rect id="b4" rx="3" ry="3" x="177" y="338" width="95" height="20" transform-origin="224.5px 348px" class="task task1"/><rect id="c1" rx="3" ry="3" x="204" y="410" width="47" height="20" transform-origin="227.5px 420px" class="task task2"/><rect id="c2" rx="3" ry="3" x="204" y="434" width="47" height="20" transform-origin="227.5px 444px" class="task task2"/><rect id="b5" rx="3" ry="3" x="231" y="386" width="47" height="20" transform-origin="254.5px 396px" class="task task1"/><rect id="c3" rx="3" ry="3" x="251" y="458" width="48" height="20" transform-origin="275px 468px" class="task task2"/><rect id="task3" rx="3" ry="3" x="248" y="362" width="20" height="20" transform-origin="258px 372px" class="task milestone  task1"/><rect id="c4" rx="3" ry="3" x="299" y="482" width="34" height="20" transform-origin="316px 492px" class="task task2"/><rect id="c5" rx="3" ry="3" x="333" y="506" width="95" height="20" transform-origin="380.5px 516px" class="task task2"/><rect id="c6" rx="3" ry="3" x="428" y="530" width="95" height="20" transform-origin="475.5px 540px" class="task task2"/><rect id="c7" rx="3" ry="3" x="523" y="554" width="95" height="20" transform-origin="570.5px 564px" class="task task2"/><rect id="task4" rx="3" ry="3" x="608" y="578" width="20" height="20" transform-origin="618px 588px" class="task milestone  task2"/><rect id="d1" rx="3" ry="3" x="618" y="602" width="94" height="20" transform-origin="665px 612px" class="task task3"/><rect id="d2" rx="3" ry="3" x="618" y="626" width="94" height="20" transform-origin="665px 636px" class="task task3"/><rect id="d3" rx="3" ry="3" x="712" y="650" width="95" height="20" transform-origin="759.5px 660px" class="task task3"/><rect id="d4" rx="3" ry="3" x="807" y="674" width="143" height="20" transform-origin="878.5px 684px" class="task task3"/><rect id="d5" rx="3" ry="3" x="807" y="698" width="143" height="20" transform-origin="878.5px 708px" class="task task3"/><rect id="task5" rx="3" ry="3" x="940" y="722" width="20" height="20" transform-origin="950px 732px" class="task milestone  task3"/><rect id="e1" rx="3" ry="3" x="950" y="770" width="94" height="20" transform-origin="997px 780px" class="task task0"/><rect id="f1" rx="3" ry="3" x="950" y="938" width="94" height="20" transform-origin="997px 948px" class="task task1"/><rect id="e2" rx="3" ry="3" x="1044" y="794" width="95" height="20" transform-origin="1091.5px 804px" class="task task0"/><rect id="f2" rx="3" ry="3" x="1044" y="962" width="95" height="20" transform-origin="1091.5px 972px" class="task task1"/><rect id="f3" rx="3" ry="3" x="1044" y="986" width="95" height="20" transform-origin="1091.5px 996px" class="task task1"/><rect id="e3" rx="3" ry="3" x="1139" y="818" width="143" height="20" transform-origin="1210.5px 828px" class="task task0"/><rect id="e4" rx="3" ry="3" x="1139" y="842" width="143" height="20" transform-origin="1210.5px 852px" class="task task0"/><rect id="task9" rx="3" ry="3" x="1129" y="1010" width="20" height="20" transform-origin="1139px 1020px" class="task milestone  task1"/><rect id="e5" rx="3" ry="3" x="1282" y="866" width="47" height="20" transform-origin="1305.5px 876px" class="task task0"/><rect id="task7" rx="3" ry="3" x="1319" y="890" width="20" height="20" transform-origin="1329px 900px" class="task milestone  task0"/><rect id="g1" rx="3" ry="3" x="1329" y="1034" width="95" height="20" transform-origin="1376.5px 1044px" class="task task2"/><rect id="g2" rx="3" ry="3" x="1424" y="1058" width="190" height="20" transform-origin="1519px 1068px" class="task task2"/><rect id="g3" rx="3" ry="3" x="1614" y="1082" width="48" height="20" transform-origin="1638px 1092px" class="task task2"/><rect id="h1" rx="3" ry="3" x="1662" y="1106" width="47" height="20" transform-origin="1685.5px 1116px" class="task task3"/><rect id="h2" rx="3" ry="3" x="1662" y="1130" width="142" height="20" transform-origin="1733px 1140px" class="task task3"/><rect id="task6" rx="3" ry="3" x="950" y="35" width="1.6" height="1168" transform-origin="950px 756px" class="task vert  task3"/><rect id="task8" rx="3" ry="3" x="1329" y="35" width="1.6" height="1168" transform-origin="1329px 924px" class="task vert  task0"/><rect id="task10" rx="3" ry="3" x="1804" y="35" width="1.6" height="1168" transform-origin="1804px 1164px" class="task vert  task3"/><text id="a1-text" font-size="11" x="98.5" y="63.5" class="taskText taskText0  width-46.35302734375">Objetivos   </text><text id="a5.1-text" font-size="11" x="868.5" y="183.5" class="taskText taskText0  width-108.234375">Control y Seguimiento   </text><text id="a2-text" font-size="11" x="105.5" y="87.5" class="taskText taskText0  width-29.2353515625">Datos   </text><text id="a3-text" font-size="11" x="112.5" y="111.5" class="taskText taskText0  width-36.078125">Modelo  </text><text id="a4-text" font-size="11" x="148" y="135.5" class="taskTextOutsideRight taskTextOutside0  width-48.921875">Cobertura   </text><text id="a5-text" font-size="11" x="155" y="159.5" class="taskTextOutsideRight taskTextOutside0  width-61.765625">Planificación   </text><text id="a6-text" font-size="11" x="161" y="207.5" class="taskTextOutsideRight taskTextOutside0  width-51.8583984375">Requisitos  </text><text id="b1-text" font-size="11" x="168" y="255.5" class="taskTextOutsideRight taskTextOutside1  width-40.24609375">Fuentes   </text><text id="task1-text" font-size="11" x="171" y="231.5" class="taskTextOutsideRight taskTextOutside0  milestoneText width-124.140625">Planificación Completada </text><text id="b2-text" font-size="11" x="182" y="279.5" class="taskTextOutsideRight taskTextOutside1  width-47.078125">Descarga   </text><text id="b3-text" font-size="11" x="210.5" y="327.5" class="taskText taskText1  width-76.21875">Automatización    </text><text id="task2-text" font-size="11" x="192" y="303.5" class="taskTextOutsideRight taskTextOutside1  milestoneText width-124.0029296875">Datos Brutos Disponibles    </text><text id="b4-text" font-size="11" x="224.5" y="351.5" class="taskText taskText1  width-82.9375">Almacenamiento   </text><text id="c1-text" font-size="11" x="256" y="423.5" class="taskTextOutsideRight taskTextOutside2  width-107.390625">Análisis de Estructura  </text><text id="c2-text" font-size="11" x="256" y="447.5" class="taskTextOutsideRight taskTextOutside2  width-140.640625">Formato de Almacenamiento   </text><text id="b5-text" font-size="11" x="283" y="399.5" class="taskTextOutsideRight taskTextOutside1  width-57.484375">Exploración   </text><text id="c3-text" font-size="11" x="304" y="471.5" class="taskTextOutsideRight taskTextOutside2  width-149.09130859375">Esquema de la Base de Datos </text><text id="task3-text" font-size="11" x="273" y="375.5" class="taskTextOutsideRight taskTextOutside1  milestoneText width-104.578125">Pipeline de Descarga    </text><text id="c4-text" font-size="11" x="338" y="495.5" class="taskTextOutsideRight taskTextOutside2  width-44.640625">Inserción  </text><text id="c5-text" font-size="11" x="380.5" y="519.5" class="taskText taskText2  width-44.03125">Curación    </text><text id="c6-text" font-size="11" x="528" y="543.5" class="taskTextOutsideRight taskTextOutside2  width-146.40673828125">Almacenamiento y Metadatos  </text><text id="c7-text" font-size="11" x="570.5" y="567.5" class="taskText taskText2  width-76.21875">Automatización  </text><text id="task4-text" font-size="11" x="633" y="591.5" class="taskTextOutsideRight taskTextOutside2  milestoneText width-101.515625">Pipeline de Curación    </text><text id="d1-text" font-size="11" x="717" y="615.5" class="taskTextOutsideRight taskTextOutside3  width-113.5">Análisis de Correlación </text><text id="d2-text" font-size="11" x="717" y="639.5" class="taskTextOutsideRight taskTextOutside3  width-116.86572265625">Tendencias Temporales   </text><text id="d3-text" font-size="11" x="812" y="663.5" class="taskTextOutsideRight taskTextOutside3  width-107.716796875">Evaluación Preliminar   </text><text id="d4-text" font-size="11" x="878.5" y="687.5" class="taskText taskText3  width-114.53125">Visualización e Informe  </text><text id="d5-text" font-size="11" x="878.5" y="711.5" class="taskText taskText3  width-76.21875">Automatización  </text><text id="task5-text" font-size="11" x="965" y="735.5" class="taskTextOutsideRight taskTextOutside3  milestoneText width-95.28369140625">Pipeline de Análisis    </text><text id="e1-text" font-size="11" x="997" y="783.5" class="taskText taskText0  width-69.71875">Modelos Base </text><text id="f1-text" font-size="11" x="997" y="951.5" class="taskText taskText1  width-72.4814453125">Análisis Actual </text><text id="e2-text" font-size="11" x="1144" y="807.5" class="taskTextOutsideRight taskTextOutside0  width-101.3798828125">Modelos Específicos </text><text id="f2-text" font-size="11" x="1091.5" y="975.5" class="taskText taskText1  width-75.0830078125">Puntos Críticos </text><text id="f3-text" font-size="11" x="1091.5" y="999.5" class="taskText taskText1  width-59.80224609375">Deficiencias    </text><text id="e3-text" font-size="11" x="1210.5" y="831.5" class="taskText taskText0  width-53.828125">Evaluación  </text><text id="e4-text" font-size="11" x="1210.5" y="855.5" class="taskText taskText0  width-78.890625">Interpretabilidad   </text><text id="task9-text" font-size="11" x="1154" y="1023.5" class="taskTextOutsideRight taskTextOutside1  milestoneText width-114.23291015625">Cobertura de Sensores   </text><text id="e5-text" font-size="11" x="1334" y="879.5" class="taskTextOutsideRight taskTextOutside0  width-149.203125">Publicación y Almacenamiento    </text><text id="task7-text" font-size="11" x="1344" y="903.5" class="taskTextOutsideRight taskTextOutside0  milestoneText width-87.4375">Modelo Predictivo   </text><text id="g1-text" font-size="11" x="1429" y="1047.5" class="taskTextOutsideRight taskTextOutside2  width-122.28125">Recopilación y Discusión    </text><text id="g2-text" font-size="11" x="1519" y="1071.5" class="taskText taskText2  width-108.84375">Redacción del artículo  </text><text id="g3-text" font-size="11" x="1667" y="1095.5" class="taskTextOutsideRight taskTextOutside2  width-149.8125">Publicación de Datos y Código   </text><text id="h1-text" font-size="11" x="1657" y="1119.5" class="taskTextOutsideLeft taskTextOutside3">Evaluación de Rendimiento   </text><text id="h2-text" font-size="11" x="1733" y="1143.5" class="taskText taskText3  width-141.1875">Elaboración de Informe Final    </text><text id="task6-text" font-size="11" x="950" y="1223" class="taskTextOutsideRight taskTextOutside3  vertText width-86.72216796875">Pipeline de Datos    </text><text id="task8-text" font-size="11" x="1329" y="1223" class="taskTextOutsideRight taskTextOutside0  vertText width-87.4375">Modelo Predictivo   </text><text id="task10-text" font-size="11" x="1804" y="1223" class="taskTextOutsideLeft taskTextOutside3  vertText">Fin del Proyecto    </text></g><g><text dy="0em" x="10" y="146" font-size="11" class="sectionTitle sectionTitle0"><tspan alignment-baseline="central" x="10">Planificación</tspan></text><text dy="0em" x="10" y="326" font-size="11" class="sectionTitle sectionTitle1"><tspan alignment-baseline="central" x="10">Recopilación de Datos</tspan></text><text dy="0em" x="10" y="506" font-size="11" class="sectionTitle sectionTitle2"><tspan alignment-baseline="central" x="10">Curación de Datos</tspan></text><text dy="0em" x="10" y="686" font-size="11" class="sectionTitle sectionTitle3"><tspan alignment-baseline="central" x="10">Análisis de Datos</tspan></text><text dy="0em" x="10" y="854" font-size="11" class="sectionTitle sectionTitle0"><tspan alignment-baseline="central" x="10">Modelo Predictivo</tspan></text><text dy="0em" x="10" y="986" font-size="11" class="sectionTitle sectionTitle1"><tspan alignment-baseline="central" x="10">Evaluación de Cobertura</tspan></text><text dy="0em" x="10" y="1070" font-size="11" class="sectionTitle sectionTitle2"><tspan alignment-baseline="central" x="10">Publicación de Resultados</tspan></text><text dy="0em" x="10" y="1142" font-size="11" class="sectionTitle sectionTitle3"><tspan alignment-baseline="central" x="10">Evaluación y Propuesta de Medidas</tspan></text></g><g class="today"><line x1="-2262" x2="-2262" y1="25" y2="1203" class="today"/></g><text x="939.5" y="25" class="titleText">Impacto de la calidad del aire en la prevalencia de asma: California</text></svg>